<?xml version="1.0" encoding="iso-8859-1"?>
<!-- Generator: Adobe Illustrator 19.0.0, SVG Export Plug-In . SVG Version: 6.00 Build 0)  -->
<svg xmlns="http://www.w3.org/2000/svg" xmlns:xlink="http://www.w3.org/1999/xlink" version="1.1" id="Capa_1" x="0px" y="0px" viewBox="0 0 512 512" style="enable-background:new 0 0 512 512;" xml:space="preserve" width="512px" height="512px">
<g>
	<g>
		<path d="M432.657,441.022L331.18,289.954c-1.28-1.903-1.643-4.26-0.996-6.463c0.648-2.204,2.229-3.991,4.336-4.901l71.539-30.865    c3.205-1.383,5.032-4.794,4.408-8.229c-0.624-3.434-3.535-5.983-7.021-6.149l-61.508-2.932c-2.959-0.142-5.527-1.917-6.703-4.634    c-1.177-2.717-0.715-5.804,1.206-8.059l71.006-83.379c2.346-2.754,2.391-6.789,0.107-9.597c-2.281-2.806-6.24-3.581-9.418-1.847    l-98.083,53.651c-2.681,1.464-5.973,1.209-8.393-0.652c-2.42-1.86-3.514-4.979-2.787-7.942l4.152-16.912    c0.852-3.467-0.859-7.054-4.09-8.575c-3.231-1.52-7.086-0.553-9.215,2.313l-10.68,14.375c-1.648,2.22-4.382,3.388-7.126,3.053    c-2.748-0.339-5.113-2.137-6.173-4.69l-33.198-80.013c-1.392-3.354-4.979-5.229-8.536-4.451c-3.548,0.778-6.027,3.987-5.886,7.617    l3.178,81.559c0.116,2.981-1.523,5.788-4.18,7.15c-2.657,1.363-5.896,1.06-8.25-0.774l-18.585-14.472    c-2.775-2.16-6.68-2.104-9.392,0.142c-2.71,2.243-3.496,6.069-1.89,9.2l10.077,19.645c1.346,2.622,1.094,5.724-0.658,8.094    c-1.752,2.37-4.635,3.526-7.543,3.007l-75.262-13.41c-3.536-0.631-7.02,1.334-8.313,4.684c-1.293,3.35-0.03,7.146,3.012,9.055    l64.866,40.686c2.477,1.553,3.847,4.327,3.575,7.24c-0.271,2.912-2.132,5.386-4.856,6.456l-22.443,8.814    c-3.389,1.33-5.332,4.901-4.609,8.469c0.722,3.567,3.927,6.086,7.539,6.01l25.64-0.646c0.062-0.002,0.122-0.002,0.184-0.002    c2.852,0,5.444,1.534,6.799,4.037c1.387,2.561,1.221,5.641-0.433,8.039l-3.86,5.602c-2.351,3.41-1.491,8.081,1.92,10.433    c3.411,2.351,8.081,1.489,10.433-1.92l3.859-5.601c4.871-7.066,5.359-16.146,1.273-23.693c-2.825-5.22-7.469-9.011-12.916-10.781    c3.603-3.652,5.909-8.489,6.407-13.826c0.799-8.586-3.241-16.765-10.543-21.341l-32.168-20.177l37.266,6.64    c8.557,1.524,17.077-1.873,22.237-8.859c3.635-4.918,5.079-10.905,4.232-16.715c6.108,2.585,13.19,2.42,19.249-0.688    c7.828-4.017,12.666-12.293,12.321-21.083l-1.547-39.698l17.146,41.321c3.126,7.531,10.097,12.83,18.196,13.83    c4.928,0.61,9.835-0.437,14.018-2.817c1.064,5.269,3.986,10.105,8.417,13.51c7.13,5.483,16.84,6.238,24.734,1.921l62.411-34.14    l-44.643,52.422c-5.658,6.64-7.021,15.739-3.554,23.745c3.467,8.008,11.036,13.241,19.754,13.658l29.145,1.39l-41.791,18.03    c-6.215,2.685-10.874,7.949-12.783,14.446c-1.907,6.498-0.836,13.446,2.938,19.059l77.322,115.109l-111.198-82.164    c-3.939-2.913-8.599-4.453-13.476-4.453c-1.919,0-3.84,0.245-5.705,0.729c-6.658,1.721-12.116,6.298-14.975,12.56l-20.507,44.964    V333.45c0-8.339-4.555-15.987-11.891-19.965c-7.332-3.967-16.227-3.606-23.216,0.946l-57.201,37.3l17.303-25.105    c2.351-3.41,1.491-8.081-1.92-10.433c-3.413-2.353-8.082-1.491-10.433,1.92l-38.877,56.412c-2.032,2.95-1.695,6.926,0.805,9.492    c2.501,2.565,6.468,3.005,9.469,1.047l89.047-58.066c2.372-1.546,5.392-1.669,7.878-0.323c2.489,1.35,4.035,3.945,4.035,6.774    v86.141c0.003,3.524,2.463,6.575,5.911,7.324c3.446,0.748,6.953-1.007,8.417-4.217l34.831-76.368    c0.97-2.125,2.821-3.679,5.084-4.263c2.262-0.587,4.633-0.121,6.506,1.265l146.035,107.906c1.332,0.983,2.896,1.468,4.455,1.468    c1.877,0,3.745-0.702,5.185-2.079C434.252,448.104,434.691,444.051,432.657,441.022z" fill="#FFFFFF"/>
	</g>
</g>
<g>
	<g>
		<path d="M470.828,228.521c-1.901-10.455-10.643-18.11-21.257-18.617l-69.993-3.336L463.52,108c7.1-8.337,7.239-20.555,0.33-29.051    c-6.91-8.495-18.899-10.849-28.511-5.592l-111.895,61.206l6.751-27.501c2.609-10.623-2.483-21.296-12.383-25.957    c-9.899-4.655-21.369-1.776-27.893,7.005l-22.617,30.443L223.924,14.008c-4.223-10.173-15.091-15.84-25.837-13.473    c-10.752,2.359-18.245,12.057-17.819,23.06l0.958,24.583c0.161,4.139,3.642,7.337,7.786,7.202    c4.139-0.161,7.363-3.647,7.202-7.786l-0.958-24.581c-0.145-3.734,2.398-7.025,6.049-7.826c3.644-0.802,7.331,1.12,8.763,4.57    l48.443,116.755c1.035,2.493,3.33,4.238,6.009,4.569c2.678,0.332,5.329-0.803,6.939-2.971l30.501-41.053    c2.248-3.027,6.052-3.982,9.464-2.377c3.412,1.605,5.101,5.146,4.202,8.808l-10.814,44.044c-0.708,2.888,0.355,5.921,2.713,7.733    c2.358,1.815,5.563,2.062,8.171,0.635l126.84-69.381c3.26-1.784,7.328-0.985,9.674,1.896c2.344,2.883,2.297,7.028-0.113,9.859    l-93.843,110.195c-1.854,2.177-2.309,5.22-1.172,7.844c1.137,2.625,3.668,4.374,6.524,4.51l85.247,4.063    c3.603,0.173,6.568,2.771,7.214,6.318c0.646,3.546-1.216,7.021-4.523,8.45l-101.319,43.712c-2.048,0.884-3.596,2.632-4.225,4.771    c-0.629,2.14-0.273,4.447,0.97,6.298l34.641,51.569c1.447,2.155,3.817,3.319,6.232,3.319c1.438,0,2.892-0.413,4.175-1.275    c3.438-2.31,4.354-6.969,2.044-10.408l-29.607-44.077l93.031-40.137C467.245,249.216,472.729,238.973,470.828,228.521z" fill="#FFFFFF"/>
	</g>
</g>
<g>
	<g>
		<path d="M487.427,476.626l-73.836-109.915c-2.309-3.438-6.968-4.354-10.408-2.044c-3.438,2.31-4.354,6.97-2.044,10.408    l73.836,109.918c2.095,3.117,1.645,7.266-1.07,9.862c-1.447,1.383-3.338,2.145-5.325,2.145h-0.003    c-1.649,0-3.231-0.524-4.575-1.518l-184.046-135.99c-1.819-1.344-4.147-1.792-6.336-1.229c-2.189,0.566-4.006,2.091-4.944,4.148    l-49.381,108.263c-1.541,3.379-5.019,5.118-8.646,4.331c-3.629-0.788-6.066-3.813-6.066-7.528V352.654    c0-2.752-1.508-5.283-3.928-6.595c-2.419-1.312-5.362-1.191-7.669,0.313L75.837,422.761c-3.174,2.069-7.08,1.636-9.725-1.074    c-2.645-2.714-2.977-6.632-0.826-9.752l80.962-117.478c1.601-2.322,1.763-5.347,0.42-7.827c-1.313-2.425-3.848-3.929-6.595-3.929    c-0.063,0-0.126,0.001-0.189,0.002l-64.21,1.615c-3.797,0.057-7.021-2.511-7.762-6.172c-0.743-3.672,1.248-7.33,4.734-8.701    L130.82,246.6c2.636-1.035,4.464-3.466,4.727-6.285c0.263-2.818-1.084-5.546-3.482-7.05l-92.757-58.181    c-3.117-1.954-4.418-5.864-3.093-9.299c1.326-3.435,4.909-5.459,8.542-4.81l107.313,19.122c2.81,0.498,5.653-0.633,7.347-2.926    c1.694-2.291,1.942-5.346,0.642-7.881l-21.977-42.841c-1.662-3.243-0.864-7.13,1.941-9.452c2.806-2.322,6.772-2.384,9.646-0.147    l38.056,29.634c2.302,1.791,5.433,2.086,8.031,0.755c2.597-1.332,4.185-4.049,4.07-6.965l-2.248-57.675    c-0.162-4.14-3.684-7.359-7.786-7.202c-4.139,0.161-7.363,3.647-7.202,7.786l1.619,41.551l-25.326-19.721    c-8.469-6.59-20.159-6.414-28.425,0.43c-8.269,6.844-10.622,18.296-5.723,27.852l15.072,29.382l-92.413-16.467    c-10.689-1.92-21.268,4.054-25.172,14.177c-3.906,10.121-0.071,21.648,9.118,27.409l80.16,50.28l-44.336,17.411    c-10.274,4.035-16.144,14.817-13.954,25.638c2.149,10.621,11.472,18.199,22.296,18.199c0.176,0,0.352-0.002,0.527-0.006    l49.508-1.245L52.935,403.421c-6.237,9.048-5.236,20.863,2.436,28.735c7.67,7.87,19.459,9.174,28.66,3.169l105.549-68.826v100.978    c0,10.777,7.354,19.9,17.884,22.188c10.529,2.287,21.006-2.961,25.477-12.765l45.542-99.846l176.604,130.492    c3.943,2.913,8.607,4.453,13.488,4.453h0.007c5.864,0,11.436-2.237,15.689-6.302C492.276,498.044,493.603,485.816,487.427,476.626    z" fill="#FFFFFF"/>
	</g>
</g>
<g>
</g>
<g>
</g>
<g>
</g>
<g>
</g>
<g>
</g>
<g>
</g>
<g>
</g>
<g>
</g>
<g>
</g>
<g>
</g>
<g>
</g>
<g>
</g>
<g>
</g>
<g>
</g>
<g>
</g>
</svg>
