<?xml version="1.0" encoding="iso-8859-1"?>
<!-- Generator: Adobe Illustrator 19.0.0, SVG Export Plug-In . SVG Version: 6.00 Build 0)  -->
<svg xmlns="http://www.w3.org/2000/svg" xmlns:xlink="http://www.w3.org/1999/xlink" version="1.1" id="Capa_1" x="0px" y="0px" viewBox="0 0 512 512" style="enable-background:new 0 0 512 512;" xml:space="preserve" width="512px" height="512px">
<g>
	<g>
		<path d="M149.528,112.589c-5.197-1.866-10.926,0.828-12.794,6.025l-0.356,0.993c-1.865,5.201,0.838,10.926,6.036,12.79    c1.116,0.4,2.255,0.59,3.375,0.59c4.102,0,7.949-2.544,9.414-6.627l0.35-0.976C157.423,120.187,154.725,114.459,149.528,112.589z" fill="#FFFFFF"/>
	</g>
</g>
<g>
	<g>
		<path d="M505.876,249.876c0-66.744-25.992-129.493-73.187-176.688C385.494,25.991,322.744,0,256,0S126.506,25.991,79.311,73.188    C32.116,120.383,6.124,183.132,6.124,249.876c0,4.409,0.124,8.956,0.367,13.514c0.134,2.507,1.216,4.815,2.942,6.536    c-0.008,0.003-0.014,0.006-0.021,0.008l239.523,239.143C250.81,510.948,253.351,512,256,512h0.143c2.649,0,5.19-1.052,7.065-2.924    l239.523-239.143c-0.041-0.02-0.073-0.04-0.113-0.06c1.696-1.716,2.759-4.002,2.891-6.484    C505.752,258.832,505.876,254.285,505.876,249.876z M33,265.222c8.254-3.524,17.165-5.356,26.288-5.356    c23.397,0,44.723,11.904,57.052,31.843l87.931,144.512L33,265.222z M246,466.327L136.745,286.768    c12.635-16.946,32.292-26.902,53.684-26.902c22.489,0,43.06,11.002,55.571,29.561V466.327z M246,259.853    c-15.365-12.793-34.84-19.987-55.571-19.987c-22.262,0-43.076,8.298-58.906,22.916c0.758-31.25,4.299-61.526,10.562-90.167    c1.18-5.396-2.237-10.726-7.633-11.906c-5.394-1.177-10.725,2.238-11.905,7.633c-6.202,28.362-9.838,58.225-10.868,88.995    c-14.831-11.213-33.065-17.469-52.391-17.469c-11.477,0-22.699,2.232-33.138,6.536C27.674,144.076,96.4,57.749,190.058,29.652    c-11.67,11.229-22.535,25.5-32.27,42.605c-2.732,4.8-1.055,10.905,3.745,13.638c4.801,2.73,10.906,1.054,13.637-3.745    c20.207-35.506,45.043-56.866,70.83-61.28V259.853z M266,20.856c28.34,4.768,55.119,29.703,76.282,71.445    c23.208,45.777,36.631,105.907,38.197,170.483c-15.831-14.619-36.645-22.917-58.908-22.917c-20.731,0-40.206,7.194-55.571,19.987    V20.856z M307.872,436.222l45.359-74.547c2.871-4.719,1.373-10.87-3.345-13.741c-4.717-2.87-10.87-1.372-13.741,3.345L266,466.561    V289.427c12.511-18.56,33.082-29.561,55.571-29.561c23.404,0,44.736,11.911,57.063,31.861c1.822,2.949,5.041,4.744,8.507,4.744    s6.685-1.795,8.507-4.744c12.327-19.95,33.659-31.861,57.063-31.861c9.16,0,18.107,1.845,26.389,5.397L307.872,436.222z     M452.712,239.866c-19.327,0-37.56,6.256-52.391,17.469c-2.203-65.641-16.276-126.889-40.201-174.079    c-11.178-22.047-24.003-40.017-38-53.552c93.567,28.153,162.207,114.437,163.73,216.698    C475.411,242.098,464.189,239.866,452.712,239.866z" fill="#FFFFFF"/>
	</g>
</g>
<g>
	<g>
		<path d="M371.52,316.93c-1.86-1.86-4.44-2.93-7.07-2.93s-5.21,1.069-7.07,2.93c-1.86,1.861-2.93,4.44-2.93,7.07    s1.07,5.21,2.93,7.069c1.86,1.861,4.43,2.931,7.07,2.931c2.63,0,5.21-1.07,7.07-2.931c1.86-1.859,2.93-4.439,2.93-7.069    S373.38,318.79,371.52,316.93z" fill="#FFFFFF"/>
	</g>
</g>
<g>
</g>
<g>
</g>
<g>
</g>
<g>
</g>
<g>
</g>
<g>
</g>
<g>
</g>
<g>
</g>
<g>
</g>
<g>
</g>
<g>
</g>
<g>
</g>
<g>
</g>
<g>
</g>
<g>
</g>
</svg>
