<?xml version="1.0" encoding="iso-8859-1"?>
<!-- Generator: Adobe Illustrator 19.0.0, SVG Export Plug-In . SVG Version: 6.00 Build 0)  -->
<svg xmlns="http://www.w3.org/2000/svg" xmlns:xlink="http://www.w3.org/1999/xlink" version="1.1" id="Capa_1" x="0px" y="0px" viewBox="0 0 512.003 512.003" style="enable-background:new 0 0 512.003 512.003;" xml:space="preserve" width="512px" height="512px">
<g>
	<g>
		<path d="M502.54,359.58c-17.121-22.77-36.456-43.869-57.469-62.713c-12.702-11.39-30.304-15.94-47.096-12.166l-32.601,7.326    c-30.103,6.763-59.945-11.171-67.937-40.832c-1.093-4.055-5.267-6.455-9.32-5.364c-4.055,1.093-6.456,5.265-5.364,9.32    c8.681,32.218,37.7,53.515,69.817,53.513c5.319,0,10.728-0.585,16.139-1.8l32.601-7.326c11.997-2.696,24.562,0.537,33.608,8.651    c20.278,18.185,38.94,38.551,55.467,60.532c3.068,4.079,1.784,8.199-0.439,10.693c-2.258,2.532-6.263,4.306-10.733,1.685    c-26.147-15.321-46.981-32.534-57.074-41.43c-6.248-5.508-14.969-7.133-22.759-4.246c-10.874,4.033-22.544,11.446-34.683,22.034    c-7.085,6.18-10.638,15.447-9.502,24.79c1.138,9.366,6.826,17.536,15.213,21.853l13.243,6.817    c17.732,9.127,28.406,27.888,27.19,47.799l-0.037,0.612c-0.779,12.764-7.381,24.068-18.117,31.012    c-10.771,6.968-23.853,8.355-35.892,3.802c-13.738-5.194-23.451-17.467-25.35-32.032l-2.448-18.781    c-1.266-9.715-6.778-18.238-15.123-23.384c-8.245-5.085-18.195-6.18-27.295-3.002c-44.181,15.427-88.662,5.834-118.196-4.93    c-30.303-11.044-54.012-35.855-63.419-66.369c-2.809-9.113-5.068-19.015-6.712-29.43c-0.76-4.815,2.909-6.696,4.052-7.158    c1.162-0.47,5.18-1.689,8.03,2.375c6.758,9.632,13.004,19.796,18.565,30.209c8.862,16.594,24.194,28.925,42.067,33.83    c6.222,1.708,13.063,3.271,20.335,4.648c7.993,1.514,15.997-1.928,20.393-8.765c4.411-6.861,4.216-15.603-0.495-22.271    c-33.605-47.56-79.039-136.761-97.014-172.906c-7.714-15.512-17.847-29.596-30.115-41.862L70.31,120.561    c-2.97-2.969-7.784-2.968-10.753,0.002c-2.968,2.969-2.967,7.784,0.002,10.752l13.758,13.753    c11.102,11.099,20.271,23.843,27.251,37.878c22.52,45.286,65.227,128.229,98.21,174.91c1.66,2.348,0.639,4.469,0.123,5.271    c-0.509,0.792-1.992,2.575-4.773,2.049c-6.872-1.301-13.31-2.772-19.138-4.372c-13.864-3.805-25.775-13.401-32.678-26.329    c-5.85-10.953-12.42-21.646-19.53-31.778c-5.99-8.538-16.51-11.648-26.179-7.74c-9.616,3.888-14.991,13.383-13.373,23.63    c1.757,11.126,4.18,21.738,7.202,31.538c10.801,35.035,37.995,63.512,72.743,76.177c31.862,11.612,80.002,21.905,128.417,5    c4.757-1.661,9.969-1.082,14.299,1.589c4.429,2.732,7.355,7.254,8.026,12.407l2.448,18.781    c2.625,20.138,16.055,37.109,35.052,44.291c6.437,2.433,13.089,3.635,19.69,3.635c10.431,0,20.732-3.002,29.839-8.894    c14.834-9.597,23.959-25.216,25.037-42.862l0.036-0.61c1.583-25.923-12.317-50.353-35.41-62.24l-13.243-6.817    c-3.96-2.038-6.539-5.744-7.076-10.167c-0.534-4.399,1.071-8.588,4.402-11.494c10.748-9.375,20.832-15.847,29.975-19.237    c2.533-0.939,5.374-0.404,7.416,1.394c10.503,9.259,32.192,27.176,59.441,43.142c10.056,5.893,22.021,4.011,29.773-4.686    C509.008,380.882,509.507,368.845,502.54,359.58z" fill="#FFFFFF"/>
	</g>
</g>
<g>
	<g>
		<path d="M258.688,61.824L167.92,4.693c-7.102-4.47-15.494-5.803-23.631-3.757c-8.137,2.047-14.9,7.193-19.043,14.492l-0.274,0.483    c-7.699,13.565-4.411,30.346,7.817,39.904c14.68,11.473,36.382,28.989,56.411,47.285c10.092,9.218,15.379,22.285,14.509,35.85    c-1.009,15.706-3.65,30.472-7.85,43.89c-0.919,2.936-3.423,3.286-4.457,3.299c-1.053,0.015-3.589-0.273-4.599-3.22    c-8.195-23.911-21.412-56.835-37.853-77.891c-3.88-4.969-8.559-9.352-13.908-13.029L54.093,36.345    c-7.226-4.969-16.27-6.69-24.819-4.724c-8.546,1.967-15.93,7.468-20.258,15.093l-0.273,0.48    C1.629,59.73,3.749,75.56,13.899,85.691c7.316,7.302,16.938,16.916,26.901,26.872c2.969,2.967,7.783,2.967,10.752-0.004    c2.968-2.97,2.966-7.785-0.004-10.753c-9.965-9.958-19.591-19.574-26.908-26.878c-5.32-5.31-6.419-13.628-2.673-20.227    l0.273-0.479c2.264-3.989,5.972-6.753,10.442-7.781c4.47-1.028,9.015-0.164,12.794,2.435l80.951,55.654    c4.069,2.798,7.615,6.114,10.538,9.858c15.141,19.391,27.637,50.651,35.452,73.461c2.85,8.317,10.338,13.627,19.188,13.496    c8.781-0.118,16.148-5.598,18.765-13.962c4.562-14.574,7.426-30.542,8.512-47.458c1.169-18.193-5.912-35.707-19.427-48.052    c-20.385-18.622-42.413-36.402-57.303-48.04c-6.239-4.876-7.904-13.462-3.956-20.418l0.274-0.483    c2.072-3.651,5.455-6.225,9.526-7.249c4.071-1.024,8.27-0.356,11.821,1.88l90.772,57.131    c20.987,13.209,32.42,37.686,29.127,62.358c-4.462,33.435-5.271,63.277-2.406,88.698c0.438,3.884,3.728,6.752,7.546,6.752    c0.284,0,0.572-0.016,0.862-0.049c4.173-0.47,7.175-4.235,6.703-8.407c-2.726-24.186-1.93-52.778,2.367-84.982    C298.865,108.512,284.695,78.193,258.688,61.824z" fill="#FFFFFF"/>
	</g>
</g>
<g>
	<g>
		<path d="M463.641,152.024l-17.953-62.148c-0.94-3.253-3.918-5.493-7.305-5.493h-62.148c-2.39,0-4.641,1.123-6.077,3.033    c-0.563,0.748-0.969,1.585-1.223,2.461l-0.006-0.002l-17.953,62.148c-0.663,2.296-0.209,4.77,1.228,6.68    c1.437,1.909,3.687,3.033,6.078,3.033h98.055c2.39,0,4.641-1.123,6.077-3.033C463.85,156.794,464.304,154.319,463.641,152.024z     M368.392,146.53l7.843-27.148l7.843,27.148H368.392z M399.905,146.53l-13.561-46.941h46.319l13.561,46.941H399.905z" fill="#FFFFFF"/>
	</g>
</g>
<g>
	<g>
		<path d="M135.161,490.943l-20.539-71.102l-0.006,0.002c-0.253-0.877-0.66-1.713-1.223-2.461c-1.437-1.91-3.687-3.033-6.077-3.033    H36.216c-3.386,0-6.365,2.24-7.305,5.493L8.37,490.943c-0.663,2.296-0.209,4.77,1.228,6.68c1.437,1.91,3.687,3.033,6.077,3.033    h112.183c2.389,0,4.641-1.123,6.077-3.033C135.37,495.712,135.824,493.238,135.161,490.943z M25.786,485.45l16.148-55.895h55.273    L81.059,485.45H25.786z M96.888,485.45l10.43-36.102l10.43,36.102H96.888z" fill="#FFFFFF"/>
	</g>
</g>
<g>
	<g>
		<path d="M278.455,325.51c-4.186-8.751-13.12-14.555-23.062-14.555c-14.101,0-25.573,11.472-25.573,25.573    c0,6.831,2.741,13.32,7.498,18.076c0.058,16.923,13.842,30.672,30.779,30.672c16.971,0,30.778-13.808,30.778-30.779    C298.875,341.392,290.51,329.823,278.455,325.51z M268.096,370.07c-8.586,0-15.572-6.986-15.572-15.572    c0-0.7,0.052-1.43,0.155-2.173c0.393-2.836-0.839-5.652-3.188-7.286c-2.795-1.944-4.464-5.127-4.464-8.512    c0-5.716,4.65-10.366,10.366-10.366c4.648,0,8.753,3.137,9.982,7.628c0.758,2.771,3.013,4.878,5.829,5.447    c7.221,1.46,12.463,7.878,12.463,15.262C283.667,363.084,276.682,370.07,268.096,370.07z" fill="#FFFFFF"/>
	</g>
</g>
<g>
</g>
<g>
</g>
<g>
</g>
<g>
</g>
<g>
</g>
<g>
</g>
<g>
</g>
<g>
</g>
<g>
</g>
<g>
</g>
<g>
</g>
<g>
</g>
<g>
</g>
<g>
</g>
<g>
</g>
</svg>
