<?xml version="1.0" encoding="iso-8859-1"?>
<!-- Generator: Adobe Illustrator 19.0.0, SVG Export Plug-In . SVG Version: 6.00 Build 0)  -->
<svg xmlns="http://www.w3.org/2000/svg" xmlns:xlink="http://www.w3.org/1999/xlink" version="1.1" id="Capa_1" x="0px" y="0px" viewBox="0 0 512 512" style="enable-background:new 0 0 512 512;" xml:space="preserve" width="512px" height="512px">
<g>
	<g>
		<path d="M420.299,367.975c16.179-7.731,31.273-8.559,31.432-8.566c3.259-0.138,6.247-1.856,8.004-4.604    c1.757-2.749,2.063-6.181,0.82-9.197l-22.997-55.795c-1.045-2.535-3.084-4.529-5.641-5.518c-2.558-0.988-5.408-0.882-7.885,0.291    c-19.986,9.467-36.822,25.475-46.911,44.147c-3.334-2.279-6.742-4.474-10.227-6.576c12.091-18.052,19.788-39.283,21.536-62.154    h0.381c22.056,0,40-17.944,40-40c0-18.604-12.767-34.282-30-38.734V140c0-1.502-0.032-2.996-0.079-4.487    c0.004-0.334-0.008-0.671-0.039-1.007c-0.463-11.936-2.427-23.492-5.709-34.487c-0.097-0.419-0.218-0.83-0.366-1.229    C374.981,41.643,321.67,0,258.811,0c-24.649,0-47.826,6.412-67.964,17.642c-0.605,0.263-1.189,0.59-1.743,0.978    c-30.164,17.391-53.271,45.701-63.889,79.491c-0.06,0.164-0.127,0.323-0.179,0.492c-0.057,0.185-0.095,0.371-0.141,0.556    c-3.648,11.938-5.743,24.548-6.042,37.594c-0.003,0.072,0,0.144-0.002,0.216c-0.021,1.008-0.039,2.017-0.039,3.03v41.269    c-17.233,4.452-30,20.13-30,38.734c0,6.849,1.732,13.299,4.778,18.94c-3.183,5.317-13.348,17.222-42.948,25.011    c-2.649,0.697-4.897,2.451-6.217,4.852c-1.32,2.4-1.598,5.237-0.768,7.848l17,53.499c1.229,3.869,4.677,6.611,8.724,6.939    c0.154,0.013,1.161,0.088,2.846,0.088c5.253,0,17.101-0.733,30.271-6.394c11.264-4.842,25.152-14.051,36.032-31.485    c3.313,8.054,7.409,15.706,12.198,22.857C87.578,360.243,48.812,428.126,48.812,502c0,5.523,4.477,10,10,10h400    c5.523,0,10-4.477,10-10C468.812,452.163,451.17,405.051,420.299,367.975z M423.356,307.839l13.815,33.52    c-8.367,1.754-19.593,5.085-30.907,11.357c-4.141-4.081-8.464-8.001-12.96-11.751    C400.405,326.354,412.124,315.114,423.356,307.839z M374.359,351.418c0.389,0.359,0.815,0.683,1.265,0.979    c7.497,5.852,14.503,12.212,20.974,19.021c0.47,0.63,0.996,1.195,1.576,1.682c3.194,3.443,6.254,6.996,9.175,10.652    c-22.888,13.946-57.979,28.102-94.376,39.632c-16.636-5.616-31.99-13.215-45.751-21.56c8.473-9.195,12.673-17.908,14.728-23.888    c28.419-5.126,53.653-19.525,72.456-39.935C361.385,342.089,368.044,346.572,374.359,351.418z M258.808,360    c-16.119,0-31.438-3.485-45.246-9.741c29.242-0.995,73.9-6.023,124.356-23.909C317.901,347.084,289.837,360,258.808,360z     M258.862,380c-2.015,3.225-4.801,6.862-8.641,10.634c-6.196-4.405-11.952-8.861-17.231-13.213    c8.349,1.689,16.983,2.579,25.822,2.579C258.829,380,258.845,380,258.862,380z M358.364,296.754    c-84.468,37.051-159.521,34.166-175.166,33.063c-3.254-3.085-6.321-6.363-9.18-9.82c-0.457-0.739-0.993-1.402-1.597-1.978    c-5.683-7.202-10.48-15.131-14.24-23.619c2.873,0.068,5.733,0.114,8.562,0.114c51.228,0,95.036-10.939,134.288-20.742    c25.107-6.27,47.301-11.799,67.281-13.335C367.094,273.313,363.648,285.548,358.364,296.754z M258.811,20    c48.363,0,90.129,28.761,109.108,70.074c-43.366-6.851-78.467-19.797-101.204-30.029c-23.717-10.673-41.864-21.84-53.809-30.911    C227.055,23.254,242.559,20,258.811,20z M193.645,39.284c15.983,13.674,44.43,31.222,81.524,45.963    c-61.918,16.96-107.777,12.455-127.287,9.006C157.246,71.629,173.334,52.471,193.645,39.284z M138.812,149.553    c7.216,1.246,15.079,2.198,23.04,2.767c0.243,0.017,0.484,0.026,0.724,0.026c5.198,0,9.587-4.021,9.964-9.287    c0.394-5.509-3.752-10.294-9.261-10.688c-8.441-0.604-16.695-1.664-23.987-3.057c0.477-5.372,1.305-10.645,2.468-15.792    c9.484,1.875,25.311,4.143,46.422,4.143c29.948,0,70.51-4.575,118.572-21.308c21.064,6.483,44.097,11.773,68.591,15    c1.396,5.678,2.386,11.512,2.939,17.472c-30.369,12.035-70.167,24.755-113.481,34.503c-0.635,0.079-1.262,0.218-1.871,0.417    c-40.01,8.904-82.926,15.237-124.12,16.138V149.553z M378.81,150.083v29.684c-18.894-0.604-48.374-2.343-72.813-6.112    C333.034,166.285,357.842,158.095,378.81,150.083z M77.446,316.943l-11.642-36.638c23.105-7.699,35.324-18.061,41.769-26.433    c6.16,3.876,13.44,6.129,21.24,6.129h0.38c0.245,3.199,0.608,6.365,1.081,9.496C117.848,308.276,90.097,315.652,77.446,316.943z     M128.811,240.001c-11.028,0-20-8.972-20-20c0.001-11.028,8.973-20,20.001-20c44.866,0,92.13-6.593,136.066-16.232    c33.609,14.65,114.395,16.111,123.804,16.231c0.042,0.001,0.085,0.001,0.127,0.001c11.028,0,20,8.972,20,20    c0,11.028-8.972,20-20,20h-10c-25.095,0-51.755,6.658-82.625,14.367c-6.216,1.552-12.554,3.133-19.015,4.693    c-24.613-2.348-48.67-6.6-69.947-10.365c-26.363-4.665-49.13-8.695-68.412-8.695H128.811z M149.306,260.404    c15.528,1.103,33.842,4.343,54.432,7.986c4.52,0.8,9.169,1.622,13.918,2.443c-20.748,2.88-42.736,4.38-66.167,3.325    C150.48,269.67,149.747,265.079,149.306,260.404z M163.216,338.001c5.058,5.49,10.581,10.542,16.506,15.099    c6.748,8.25,44.657,52.496,102.295,79.375c-31.061,8.408-60.798,14.293-82.369,15.877c-32.575-25.773-58.614-51.267-80.81-74.594    C131.574,359.898,146.475,347.807,163.216,338.001z M108.812,492H69.076c0.619-11.767,2.327-23.327,5.046-34.564    c7.906,5.761,19.439,12.125,34.69,15.541V492z M128.813,492v-44.232c-0.001-5.524-4.478-10.001-10.001-10.001s-10,4.477-10,10    v4.595c-14.337-4.071-23.721-11.183-28.432-15.544c6.235-16.996,14.875-32.995,25.636-47.526    c30.446,31.873,67.985,67.599,119.153,102.708H128.813z M398.812,437.768c-5.523,0-10,4.477-10,10V492H261.684    c-13.89-8.668-26.856-17.427-38.986-26.204c60.093-9.066,150.503-37.437,196.314-65.75c7.113,11.129,13.059,22.979,17.717,35.373    c-10.617,11.832-20.536,19.221-27.917,23.684v-11.335C408.812,442.245,404.335,437.768,398.812,437.768z M408.813,492v-10.289h0    c7.621-3.449,20.364-10.621,34.648-24.45c2.745,11.291,4.466,22.912,5.088,34.739H408.813z" fill="#FFFFFF"/>
	</g>
</g>
<g>
	<g>
		<path d="M308.812,210.114c-6.886,0-12.502,5.616-12.502,12.502c0,6.885,5.617,12.501,12.502,12.501s12.501-5.616,12.501-12.501    C321.313,215.73,315.697,210.114,308.812,210.114z" fill="#FFFFFF"/>
	</g>
</g>
<g>
	<g>
		<path d="M208.81,210.114c-6.885,0-12.501,5.616-12.501,12.502c0,6.885,5.617,12.501,12.501,12.501    c6.886,0,12.502-5.616,12.502-12.501C221.312,215.73,215.696,210.114,208.81,210.114z" fill="#FFFFFF"/>
	</g>
</g>
<g>
	<g>
		<path d="M203.657,141.017c-0.618-5.488-5.56-9.433-11.056-8.819c-0.335,0.038-0.672,0.074-1.012,0.107    c-5.497,0.539-9.516,5.431-8.977,10.927c0.506,5.165,4.856,9.026,9.94,9.026c0.326,0,0.655-0.016,0.987-0.049    c0.437-0.042,0.869-0.088,1.298-0.137C200.326,151.455,204.275,146.505,203.657,141.017z" fill="#FFFFFF"/>
	</g>
</g>
<g>
</g>
<g>
</g>
<g>
</g>
<g>
</g>
<g>
</g>
<g>
</g>
<g>
</g>
<g>
</g>
<g>
</g>
<g>
</g>
<g>
</g>
<g>
</g>
<g>
</g>
<g>
</g>
<g>
</g>
</svg>
