<?xml version="1.0" encoding="iso-8859-1"?>
<!-- Generator: Adobe Illustrator 19.0.0, SVG Export Plug-In . SVG Version: 6.00 Build 0)  -->
<svg xmlns="http://www.w3.org/2000/svg" xmlns:xlink="http://www.w3.org/1999/xlink" version="1.1" id="Capa_1" x="0px" y="0px" viewBox="0 0 512 512" style="enable-background:new 0 0 512 512;" xml:space="preserve" width="512px" height="512px">
<g>
	<g>
		<g>
			<path d="M474.122,11.775C453.876,0,430.956,0,418.644,0H410c-5.522,0-10,4.477-10,10v40.752c0,5.518,4.469,9.992,9.986,10     l8.485,0.012c17.842,0,32.356,14.515,32.356,32.357V280H61.172V93.121c0-17.842,14.515-32.357,32.371-32.357l8.472-0.012     c5.518-0.008,9.986-4.482,9.986-10V10c0-5.523-4.477-10-10-10h-8.644C81.044,0,58.125,0,37.879,11.775     C12.744,26.394,0,53.842,0,93.357V477c0,19.299,15.701,35,35,35h152.527c28.474,0,51.152-15.061,65.585-43.555     c0.976-1.927,1.88-3.851,2.719-5.757c0.819,1.891,1.703,3.8,2.658,5.71C272.751,496.923,295.568,512,324.473,512H477     c19.299,0,35-15.701,35-35V93.357C512,53.842,499.256,26.394,474.122,11.775z M20,93.357C20,21.366,67.718,20.025,92,20v20.786     c-28.166,0.811-50.829,23.976-50.829,52.335V280H35c-5.365,0-10.451,1.217-15,3.384V93.357z M492,477c0,8.271-6.729,15-15,15     H324.473c-20.964,0-37.068-10.797-47.865-32.092c-8.715-17.186-10.641-34.896-10.657-35.057     c-0.513-5.084-4.775-8.965-9.885-8.998c-0.022,0-0.044,0-0.066,0c-5.081,0-9.359,3.813-9.935,8.869     c-0.077,0.673-8.239,67.277-58.537,67.277H35c-8.271,0-15-6.729-15-15V315c0-8.271,6.729-15,15-15h442c8.271,0,15,6.729,15,15     V477z M492,283.384c-4.549-2.167-9.635-3.384-15-3.384h-6.172V93.121c0-28.362-22.671-51.53-50.828-52.335V20     c24.282,0.025,72,1.365,72,73.356V283.384z" fill="#FFFFFF"/>
			<path d="M206.172,321.098h-130c-19.299,0-35,15.701-35,35v80c0,19.299,15.701,35,35,35h100c30.266,0,42.453-21.279,44.766-32.831     c0,0,20.234-81.352,20.234-82.169C241.172,336.799,225.47,321.098,206.172,321.098z M201.342,434.261     c-0.128,0.688-3.396,16.837-25.17,16.837h-100c-8.271,0-15-6.729-15-15v-80c0-8.271,6.729-15,15-15h130     c7.909,0,14.407,6.152,14.962,13.922C221.134,355.02,201.379,434.064,201.342,434.261z" fill="#FFFFFF"/>
			<path d="M435.828,321.098h-130c-19.299,0-35,15.701-35,35c0,0.817,20.214,82.087,20.214,82.087     c2.149,11.642,14.093,32.913,44.786,32.913h100c19.299,0,35-15.701,35-35v-80C470.828,336.799,455.127,321.098,435.828,321.098z      M450.828,436.098c0,8.271-6.729,15-15,15c0,0-99.865,0-100,0c-11.49,0-22.346-5.685-25.299-17.426l-19.663-78.652     c0.555-7.77,7.054-13.922,14.962-13.922h130c8.271,0,15,6.729,15,15V436.098z" fill="#FFFFFF"/>
		</g>
	</g>
</g>
<g>
</g>
<g>
</g>
<g>
</g>
<g>
</g>
<g>
</g>
<g>
</g>
<g>
</g>
<g>
</g>
<g>
</g>
<g>
</g>
<g>
</g>
<g>
</g>
<g>
</g>
<g>
</g>
<g>
</g>
</svg>
