<?xml version="1.0" encoding="iso-8859-1"?>
<!-- Generator: Adobe Illustrator 19.0.0, SVG Export Plug-In . SVG Version: 6.00 Build 0)  -->
<svg xmlns="http://www.w3.org/2000/svg" xmlns:xlink="http://www.w3.org/1999/xlink" version="1.1" id="Capa_1" x="0px" y="0px" viewBox="0 0 395.44 395.44" style="enable-background:new 0 0 395.44 395.44;" xml:space="preserve" width="512px" height="512px">
<g>
	<g>
		<path d="M370.96,158.86C366.56,0.06,265.52,0.06,221.68,0.06h-12.96c-8,0-14.4,0-22.16,0h-12.88c-43.52,0-144.56,0-148.96,158.8    c-11.12,1.68-24,7.28-24.72,20.8v76.72c0.007,1.192,0.28,2.367,0.8,3.44c0,0.72,9.04,18.48,37.28,20.24h0.64    c4.403-0.366,7.676-4.232,7.31-8.635c-0.05-0.599-0.167-1.192-0.35-1.765c-0.96-9.28,0-24.8,5.36-31.2    c0.452-0.511,0.962-0.967,1.52-1.36c0,4.24-0.56,8.56-0.56,12.8c0,80.346,65.134,145.48,145.48,145.48    s145.48-65.134,145.48-145.48c0-4.16,0-8-0.56-12.56c0.515,0.296,0.997,0.644,1.44,1.04c5.92,6.72,6.32,24,5.12,32.64    c-0.306,2.362,0.457,4.737,2.08,6.48c1.634,1.724,3.95,2.633,6.32,2.48c28.24-1.76,36.96-19.44,37.28-20.24    c0.52-1.073,0.793-2.248,0.8-3.44v-77.12C394.96,165.66,381.68,160.54,370.96,158.86z M213.704,378.362    c-5.317,0.632-10.669,0.932-16.024,0.898c-71.451-0.088-129.352-57.989-129.44-129.44c0.026-4.839,0.32-9.673,0.88-14.48    l128.56-0.72l128.64,0.72C334.716,305.933,284.296,369.966,213.704,378.362z M365.68,262.62c0.851-12.366-2.566-24.649-9.68-34.8    c-4.983-5.645-12.235-8.758-19.76-8.48l-138.56-0.72l-138.32,0.72h-0.88c-7.34-0.154-14.371,2.951-19.2,8.48    c-7.086,10.161-10.474,22.443-9.6,34.8c-5.442-1.229-10.332-4.208-13.92-8.48v-74.08c0-3.52,10-5.84,16.64-5.84    c4.418,0,8-3.582,8-8C41.44,34.3,104.88,16.06,173.68,16.06h13.04c8,0,14.72,0,22.56,0h12.4c68.4,0,131.92,18.16,133.04,150.24    c0,4.418,3.582,8,8,8c6.48,0,16.4,2.32,16.56,5.44l0.4,74.32C376.083,258.377,371.162,261.386,365.68,262.62z" fill="#FFFFFF"/>
	</g>
</g>
<g>
	<g>
		<path d="M223.76,314.7H171.6c-4.418,0-8,3.582-8,8s3.582,8,8,8h52.16c4.418,0,8-3.582,8-8S228.178,314.7,223.76,314.7z" fill="#FFFFFF"/>
	</g>
</g>
<g>
	<g>
		<path d="M150.56,57.1c-2.364-3.733-7.307-4.844-11.04-2.48l-0.08,0.08c-4.4,2.8-28.64,24-36,30    c-3.247,2.997-3.449,8.058-0.452,11.305c2.867,3.106,7.655,3.445,10.932,0.775c14.8-12.8,31.6-26.96,34.16-28.64    C151.813,65.776,152.924,60.833,150.56,57.1z" fill="#FFFFFF"/>
	</g>
</g>
<g>
	<g>
		<path d="M199.693,187.857c-0.004-0.012-0.008-0.025-0.013-0.037c-2-4.96-16.16-33.52-20.64-42.16    c-1.894-3.992-6.665-5.692-10.657-3.798c-3.992,1.894-5.692,6.665-3.798,10.657c0.068,0.143,0.139,0.283,0.215,0.421    c8.88,17.44,18.72,37.12,19.68,40c1.101,3.259,4.161,5.449,7.6,5.44c0.869,0.007,1.734-0.128,2.56-0.4    C198.831,196.58,201.093,192.048,199.693,187.857z" fill="#FFFFFF"/>
	</g>
</g>
<g>
	<g>
		<path d="M258.4,103.82c-5.2-0.4-37.2,1.6-46.8,2.24c-4.418,0.133-7.893,3.822-7.76,8.24s3.822,7.893,8.24,7.76h0.56    c19.52-1.28,41.44-2.48,44.48-2.24c4.418,0.353,8.286-2.942,8.64-7.36C266.114,108.042,262.818,104.173,258.4,103.82z" fill="#FFFFFF"/>
	</g>
</g>
<g>
	<g>
		<path d="M121.36,142.54c-3.824-2.171-8.683-0.849-10.88,2.96c-3.44,6-13.2,9.76-23.52,13.68c-14.72,5.68-31.36,12.08-36.88,28.4    c-1.373,4.174,0.877,8.674,5.04,10.08c0.826,0.272,1.691,0.407,2.56,0.4c3.439,0.009,6.499-2.181,7.6-5.44    c3.12-9.2,14.96-13.76,27.44-18.56c12.48-4.8,25.36-9.76,32-20.72C126.773,149.43,125.269,144.595,121.36,142.54z" fill="#FFFFFF"/>
	</g>
</g>
<g>
	<g>
		<path d="M293.28,68.06c-6.88,0-14.64-7.28-22.88-14.72c-11.68-10.48-25.04-22.48-42.08-19.92c-4.418,0.641-7.481,4.742-6.84,9.16    c0.641,4.418,4.742,7.481,9.16,6.84l0.8-0.16c9.68-1.44,19.04,7.04,29.04,16c10,8.96,20.24,18.16,32.8,18.8c4.418,0,8-3.582,8-8    S297.698,68.06,293.28,68.06z" fill="#FFFFFF"/>
	</g>
</g>
<g>
	<g>
		<path d="M351.68,199.02c-1.105-4.286-5.474-6.865-9.76-5.76l-0.24,0.08c-6.64,1.76-16-2.64-26.24-7.28    c-13.76-6.56-30.16-14-45.76-6.56c-4.112,1.615-6.137,6.258-4.522,10.371c1.615,4.112,6.258,6.137,10.371,4.522    c0.355-0.139,0.7-0.304,1.031-0.493c8.8-4.16,20.32,1.12,32.48,6.64c9.15,5.074,19.259,8.18,29.68,9.12    c2.428,0.012,4.847-0.284,7.2-0.88C350.206,207.675,352.785,203.306,351.68,199.02z" fill="#FFFFFF"/>
	</g>
</g>
<g>
</g>
<g>
</g>
<g>
</g>
<g>
</g>
<g>
</g>
<g>
</g>
<g>
</g>
<g>
</g>
<g>
</g>
<g>
</g>
<g>
</g>
<g>
</g>
<g>
</g>
<g>
</g>
<g>
</g>
</svg>
